<svg width="57" height="58" viewBox="0 0 57 58" fill="none" xmlns="http://www.w3.org/2000/svg">
<path d="M6.84895 57.4794L42.704 40.8551L17.0842 15.2354L0.459893 51.0745C0.221496 51.6466 -0.684416 53.9511 1.77903 56.1444C4.44908 58.5125 6.27679 57.7178 6.84895 57.4794Z" fill="url(#paint0_linear_1044_11023)"/>
<path d="M13.4924 22.9756L10.8224 28.7766C9.96416 30.8586 25.1898 46.2273 33.788 44.9876L42.7041 40.8554C32.1351 45.7346 12.1892 25.8046 13.4924 22.9756Z" fill="url(#paint1_linear_1044_11023)"/>
<path d="M8.0886 34.6729L7.46877 35.992L5.37087 40.5057C5.35498 42.2857 14.5253 51.4402 20.2628 51.2494L27.5419 47.8801C19.6588 49.2469 7.18269 36.5959 8.0886 34.6729Z" fill="url(#paint2_linear_1044_11023)"/>
<path d="M0.634521 50.7242C1.39739 52.25 5.13229 55.969 8.23146 56.8431L15.9238 53.283L15.9714 53.2513C11.2353 55.4286 3.22511 47.3549 3.08207 45.4795L0.634521 50.7242Z" fill="url(#paint3_linear_1044_11023)"/>
<path opacity="0.75" d="M6.84895 57.4794L42.704 40.8551L17.0842 15.2354L0.459893 51.0745C0.221496 51.6466 -0.684416 53.9511 1.77903 56.1444C4.44908 58.5125 6.27679 57.7178 6.84895 57.4794Z" fill="url(#paint4_radial_1044_11023)"/>
<path opacity="0.75" d="M6.84895 57.4794L42.704 40.8551L17.0842 15.2354L0.459893 51.0745C0.221496 51.6466 -0.684416 53.9511 1.77903 56.1444C4.44908 58.5125 6.27679 57.7178 6.84895 57.4794Z" fill="url(#paint5_radial_1044_11023)"/>
<path d="M29.3376 15.3627C28.9085 16.2368 28.0661 16.3639 27.4463 16.1732L28.4635 14.1548C28.4635 14.1548 29.6078 14.4091 29.6395 13.6621L29.6872 14.7111L29.3376 15.3627Z" fill="url(#paint6_linear_1044_11023)"/>
<path d="M32.1827 4.23706C32.1827 4.23706 32.9138 3.9033 33.3747 2.94971C33.8356 1.99612 31.5629 0.200195 31.5629 0.200195L30.498 2.0597C30.498 2.0597 32.294 3.23579 31.7377 3.63312C31.1656 4.03045 32.1827 4.23706 32.1827 4.23706Z" fill="url(#paint7_linear_1044_11023)"/>
<path d="M50.7776 19.5265C51.1114 16.6021 49.1406 15.6326 48.4254 15.7121C48.4254 15.7121 48.2983 14.7585 49.5697 14.4565C50.4121 14.2658 52.5576 16.173 52.0014 18.3345L50.7776 19.5265Z" fill="url(#paint8_linear_1044_11023)"/>
<path d="M43.0059 40.6329C41.2259 42.4129 34.0422 38.09 26.9379 31.0016C19.8496 23.9132 15.5266 16.7136 17.3067 14.9336C19.0867 13.1536 26.2704 17.4765 33.3747 24.5649C40.463 31.6691 44.7701 38.8528 43.0059 40.6329Z" fill="url(#paint9_linear_1044_11023)"/>
<path d="M42.402 39.4563C41.051 40.8072 34.5984 36.5479 28.0027 29.9363C21.4071 23.3247 17.1318 16.888 18.4827 15.5371C19.8336 14.1862 26.2863 18.4455 32.8819 25.0571C39.4776 31.6686 43.7529 38.1054 42.402 39.4563Z" fill="url(#paint10_linear_1044_11023)"/>
<path d="M33.3586 2.9502C33.3586 2.9502 32.5321 4.71434 32.4209 4.90506C32.0077 5.60436 30.8475 5.84276 28.7655 5.55668C26.6835 5.27061 26.0795 5.38186 25.9842 5.39775C25.8888 5.42954 24.665 4.44416 24.665 4.44416L24.7763 3.44288C24.7763 3.44288 25.0624 3.06145 26.016 3.18859C27.7165 3.44288 32.7229 4.28522 33.3586 2.9502Z" fill="url(#paint11_linear_1044_11023)"/>
<path d="M37.491 32.4633C39.1598 30.5561 40.7173 32.0501 41.7027 30.6833L40.018 28.9668C39.0327 30.3177 37.6023 29.0463 35.8381 30.9058L37.491 32.4633Z" fill="url(#paint12_linear_1044_11023)"/>
<path d="M19.3887 9.32342C21.6932 10.6902 19.643 12.5656 20.9462 13.6305L22.7421 12.0253C21.4389 10.9604 23.3143 9.11681 21.0098 7.75L19.3887 9.32342Z" fill="url(#paint13_linear_1044_11023)"/>
<path d="M43.7847 16.3956C43.8483 16.3797 43.88 15.9983 44.8177 15.3307C45.7554 14.6632 47.8692 15.6963 48.1394 15.8552C48.4255 16.0141 48.1871 18.6365 48.1871 18.6365C48.1871 18.6365 45.5488 15.8234 44.2297 16.475C42.9106 17.1108 43.7847 16.3956 43.7847 16.3956Z" fill="url(#paint14_linear_1044_11023)"/>
<path d="M44.1343 22.9279C44.1343 22.9279 44.0389 23.961 43.5621 24.4378C42.7039 25.2801 41.3371 24.0087 39.6047 24.4696C39.6047 24.4696 40.3994 22.4511 40.4789 22.2922C40.4789 22.2922 41.1782 21.8631 41.8934 22.2763C42.6244 22.6736 43.2602 22.8008 43.7052 22.5624C44.1502 22.324 44.1343 22.9279 44.1343 22.9279Z" fill="url(#paint15_linear_1044_11023)"/>
<path d="M48.7911 18.3818C48.7911 18.3818 47.0906 19.1606 46.868 19.2718C46.6455 19.3831 46.137 15.4257 47.3607 15.0283C48.6004 14.631 49.4427 14.488 49.5699 14.4721C49.697 14.4403 47.4402 14.6787 48.7911 18.3818Z" fill="#FFBF00"/>
<path d="M43.5622 24.4212C44.2615 23.6902 45.2151 22.6094 45.1674 22.3075C44.9449 20.3685 43.3715 16.0932 44.8178 15.3145C44.8178 15.3145 43.4668 16.268 43.0536 16.5541C42.6404 16.8402 42.3384 17.6031 42.3702 18.8586C42.4497 21.0519 44.1979 23.7696 43.5622 24.4212Z" fill="#FFBF00"/>
<path d="M38.7308 8.73438C37.5706 16.8876 29.481 24.6752 29.481 24.6752L30.5776 26.344C30.5776 26.344 39.3824 17.1736 40.5108 8.98866L38.7308 8.73438Z" fill="url(#paint16_linear_1044_11023)"/>
<path d="M23.807 5.3334C23.6162 5.68305 24.1725 6.27109 25.5075 7.8922C26.8426 9.5133 30.3073 13.8045 29.3219 15.362L30.3867 13.1687C30.3867 13.1687 30.4026 11.4205 29.3537 9.71991C27.7008 7.04986 24.538 4.1732 24.7764 3.45801L23.807 5.3334Z" fill="url(#paint17_linear_1044_11023)"/>
<path d="M30.8953 30.1431C31.2552 30.1431 31.5469 29.8513 31.5469 29.4915C31.5469 29.1316 31.2552 28.8398 30.8953 28.8398C30.5354 28.8398 30.2437 29.1316 30.2437 29.4915C30.2437 29.8513 30.5354 30.1431 30.8953 30.1431Z" fill="url(#paint18_linear_1044_11023)"/>
<path d="M39.9705 3.06105C40.3303 3.06105 40.6221 2.76931 40.6221 2.40943C40.6221 2.04955 40.3303 1.75781 39.9705 1.75781C39.6106 1.75781 39.3188 2.04955 39.3188 2.40943C39.3188 2.76931 39.6106 3.06105 39.9705 3.06105Z" fill="url(#paint19_linear_1044_11023)"/>
<path d="M33.8516 12.5171C34.2114 12.5171 34.5032 12.2254 34.5032 11.8655C34.5032 11.5056 34.2114 11.2139 33.8516 11.2139C33.4917 11.2139 33.2 11.5056 33.2 11.8655C33.2 12.2254 33.4917 12.5171 33.8516 12.5171Z" fill="url(#paint20_linear_1044_11023)"/>
<path d="M37.7134 24.4536C38.0733 24.4536 38.365 24.1619 38.365 23.802C38.365 23.4421 38.0733 23.1504 37.7134 23.1504C37.3535 23.1504 37.0618 23.4421 37.0618 23.802C37.0618 24.1619 37.3535 24.4536 37.7134 24.4536Z" fill="url(#paint21_linear_1044_11023)"/>
<path d="M54.4649 22.8638C54.8247 22.8638 55.1165 22.5721 55.1165 22.2122C55.1165 21.8523 54.8247 21.5605 54.4649 21.5605C54.105 21.5605 53.8132 21.8523 53.8132 22.2122C53.8132 22.5721 54.105 22.8638 54.4649 22.8638Z" fill="url(#paint22_linear_1044_11023)"/>
<path d="M50.3167 36.6119C50.6765 36.6119 50.9683 36.3201 50.9683 35.9602C50.9683 35.6003 50.6765 35.3086 50.3167 35.3086C49.9568 35.3086 49.665 35.6003 49.665 35.9602C49.665 36.3201 49.9568 36.6119 50.3167 36.6119Z" fill="url(#paint23_linear_1044_11023)"/>
<path d="M47.5991 28.2202C47.959 28.2202 48.2508 27.9285 48.2508 27.5686C48.2508 27.2087 47.959 26.917 47.5991 26.917C47.2393 26.917 46.9475 27.2087 46.9475 27.5686C46.9475 27.9285 47.2393 28.2202 47.5991 28.2202Z" fill="url(#paint24_linear_1044_11023)"/>
<path d="M51.1751 10.5151C51.5349 10.5151 51.8267 10.2234 51.8267 9.86353C51.8267 9.50365 51.5349 9.21191 51.1751 9.21191C50.8152 9.21191 50.5234 9.50365 50.5234 9.86353C50.5234 10.2234 50.8152 10.5151 51.1751 10.5151Z" fill="url(#paint25_linear_1044_11023)"/>
<path d="M43.8643 12.6441C44.2241 12.6441 44.5159 12.3523 44.5159 11.9924C44.5159 11.6326 44.2241 11.3408 43.8643 11.3408C43.5044 11.3408 43.2126 11.6326 43.2126 11.9924C43.2126 12.3523 43.5044 12.6441 43.8643 12.6441Z" fill="url(#paint26_linear_1044_11023)"/>
<path d="M38.2857 38.3917C44.929 32.9403 56.1814 31.8119 56.1814 31.8119L56.5469 29.3008C56.5469 29.3008 43.2284 30.8901 36.1719 37.009C36.9347 37.5334 37.634 37.9943 38.2857 38.3917Z" fill="url(#paint27_linear_1044_11023)"/>
<path d="M21.6138 22.6894C22.0588 23.2933 22.5515 23.8973 23.0759 24.533C24.4904 21.4179 24.1885 18.9704 24.1885 18.9704L22.4561 17.8896C22.6309 19.8127 22.0429 21.6563 21.6138 22.6894Z" fill="url(#paint28_linear_1044_11023)"/>
<defs>
<linearGradient id="paint0_linear_1044_11023" x1="-1.64416" y1="20.2422" x2="26.7214" y2="53.8569" gradientUnits="userSpaceOnUse">
<stop offset="0.2544" stop-color="#FBE07A"/>
<stop offset="1" stop-color="#FF40BF"/>
</linearGradient>
<linearGradient id="paint1_linear_1044_11023" x1="13.7717" y1="22.7025" x2="37.3111" y2="46.242" gradientUnits="userSpaceOnUse">
<stop offset="0.2544" stop-color="#9F00E8"/>
<stop offset="1" stop-color="#7000A3"/>
</linearGradient>
<linearGradient id="paint2_linear_1044_11023" x1="7.24687" y1="35.5176" x2="23.5724" y2="51.8431" gradientUnits="userSpaceOnUse">
<stop offset="0.2544" stop-color="#9F00E8"/>
<stop offset="1" stop-color="#7000A3"/>
</linearGradient>
<linearGradient id="paint3_linear_1044_11023" x1="2.31172" y1="46.2279" x2="12.6434" y2="56.5596" gradientUnits="userSpaceOnUse">
<stop offset="0.2544" stop-color="#9F00E8"/>
<stop offset="1" stop-color="#7000A3"/>
</linearGradient>
<radialGradient id="paint4_radial_1044_11023" cx="0" cy="0" r="1" gradientUnits="userSpaceOnUse" gradientTransform="translate(13.726 31.4898) rotate(119.598) scale(16.284 4.98532)">
<stop stop-color="white" stop-opacity="0.5"/>
<stop offset="1" stop-color="white" stop-opacity="0"/>
</radialGradient>
<radialGradient id="paint5_radial_1044_11023" cx="0" cy="0" r="1" gradientUnits="userSpaceOnUse" gradientTransform="translate(25.1691 46.0872) rotate(151.7) scale(25.8133 8.05086)">
<stop stop-color="#440063" stop-opacity="0.75"/>
<stop offset="1" stop-color="#420061" stop-opacity="0"/>
</radialGradient>
<linearGradient id="paint6_linear_1044_11023" x1="29.458" y1="14.769" x2="33.3591" y2="13.5231" gradientUnits="userSpaceOnUse">
<stop stop-color="#BD2719"/>
<stop offset="1" stop-color="#FF4E0D"/>
</linearGradient>
<linearGradient id="paint7_linear_1044_11023" x1="33.0854" y1="5.08893" x2="31.3388" y2="0.749538" gradientUnits="userSpaceOnUse">
<stop stop-color="#BD2719"/>
<stop offset="1" stop-color="#FF4E0D"/>
</linearGradient>
<linearGradient id="paint8_linear_1044_11023" x1="52.5122" y1="18.3423" x2="46.0062" y2="14.1736" gradientUnits="userSpaceOnUse">
<stop stop-color="#FFCB4B"/>
<stop offset="1" stop-color="#E81CA2"/>
</linearGradient>
<linearGradient id="paint9_linear_1044_11023" x1="35.8434" y1="9.84072" x2="21.3074" y2="55.6698" gradientUnits="userSpaceOnUse">
<stop offset="0.2544" stop-color="#FBE07A"/>
<stop offset="1" stop-color="#E81CA2"/>
</linearGradient>
<linearGradient id="paint10_linear_1044_11023" x1="40.6157" y1="20.3603" x2="18.3069" y2="36.0069" gradientUnits="userSpaceOnUse">
<stop stop-color="#FBE07A"/>
<stop offset="1" stop-color="white"/>
</linearGradient>
<linearGradient id="paint11_linear_1044_11023" x1="22.6585" y1="4.45837" x2="29.8635" y2="4.34921" gradientUnits="userSpaceOnUse">
<stop stop-color="#BD2719"/>
<stop offset="1" stop-color="#FF4E0D"/>
</linearGradient>
<linearGradient id="paint12_linear_1044_11023" x1="39.6194" y1="29.3048" x2="37.8867" y2="32.4136" gradientUnits="userSpaceOnUse">
<stop stop-color="#FF9214"/>
<stop offset="1" stop-color="#FF4E0D"/>
</linearGradient>
<linearGradient id="paint13_linear_1044_11023" x1="19.3784" y1="5.40768" x2="21.9984" y2="12.9038" gradientUnits="userSpaceOnUse">
<stop stop-color="#80DAFE"/>
<stop offset="1" stop-color="#008EE6"/>
</linearGradient>
<linearGradient id="paint14_linear_1044_11023" x1="46.1526" y1="19.974" x2="45.5528" y2="12.4122" gradientUnits="userSpaceOnUse">
<stop stop-color="#FFCB4B"/>
<stop offset="1" stop-color="#E81CA2"/>
</linearGradient>
<linearGradient id="paint15_linear_1044_11023" x1="39.8019" y1="23.1613" x2="43.9799" y2="23.8381" gradientUnits="userSpaceOnUse">
<stop stop-color="#FFCB4B"/>
<stop offset="1" stop-color="#E81CA2"/>
</linearGradient>
<linearGradient id="paint16_linear_1044_11023" x1="36.9306" y1="9.02776" x2="30.7325" y2="34.535" gradientUnits="userSpaceOnUse">
<stop offset="0.2544" stop-color="#E100FF"/>
<stop offset="1" stop-color="#7000A3"/>
</linearGradient>
<linearGradient id="paint17_linear_1044_11023" x1="24.74" y1="4.84834" x2="29.325" y2="12.49" gradientUnits="userSpaceOnUse">
<stop stop-color="#FF9214"/>
<stop offset="1" stop-color="#FF4E0D"/>
</linearGradient>
<linearGradient id="paint18_linear_1044_11023" x1="29.6489" y1="25.8238" x2="32.1234" y2="33.1017" gradientUnits="userSpaceOnUse">
<stop stop-color="#FFCB4B"/>
<stop offset="1" stop-color="#E81CA2"/>
</linearGradient>
<linearGradient id="paint19_linear_1044_11023" x1="37.9825" y1="-0.849593" x2="42.058" y2="5.84599" gradientUnits="userSpaceOnUse">
<stop stop-color="#FBE07A"/>
<stop offset="1" stop-color="#E81CA2"/>
</linearGradient>
<linearGradient id="paint20_linear_1044_11023" x1="33.7543" y1="11.5049" x2="34.7732" y2="15.3621" gradientUnits="userSpaceOnUse">
<stop stop-color="#80DAFE"/>
<stop offset="1" stop-color="#008EE6"/>
</linearGradient>
<linearGradient id="paint21_linear_1044_11023" x1="37.2742" y1="22.5646" x2="37.8961" y2="24.3438" gradientUnits="userSpaceOnUse">
<stop stop-color="#80DAFE"/>
<stop offset="1" stop-color="#008EE6"/>
</linearGradient>
<linearGradient id="paint22_linear_1044_11023" x1="54.9376" y1="20.691" x2="53.7731" y2="24.4026" gradientUnits="userSpaceOnUse">
<stop stop-color="#FFCB4B"/>
<stop offset="1" stop-color="#E81CA2"/>
</linearGradient>
<linearGradient id="paint23_linear_1044_11023" x1="50.1247" y1="31.7967" x2="50.4886" y2="39.7296" gradientUnits="userSpaceOnUse">
<stop stop-color="#FFCB4B"/>
<stop offset="1" stop-color="#E81CA2"/>
</linearGradient>
<linearGradient id="paint24_linear_1044_11023" x1="47.1722" y1="26.3372" x2="47.7941" y2="28.1164" gradientUnits="userSpaceOnUse">
<stop offset="0.2544" stop-color="#9F00E8"/>
<stop offset="1" stop-color="#7000A3"/>
</linearGradient>
<linearGradient id="paint25_linear_1044_11023" x1="52.4401" y1="7.69206" x2="50.0385" y2="11.8404" gradientUnits="userSpaceOnUse">
<stop stop-color="#80DAFE"/>
<stop offset="1" stop-color="#008EE6"/>
</linearGradient>
<linearGradient id="paint26_linear_1044_11023" x1="43.6962" y1="11.0679" x2="44.4967" y2="15.5073" gradientUnits="userSpaceOnUse">
<stop stop-color="#FF9214"/>
<stop offset="1" stop-color="#FF4E0D"/>
</linearGradient>
<linearGradient id="paint27_linear_1044_11023" x1="31.6679" y1="33.5169" x2="54.872" y2="33.9937" gradientUnits="userSpaceOnUse">
<stop stop-color="#80DAFE"/>
<stop offset="1" stop-color="#008EE6"/>
</linearGradient>
<linearGradient id="paint28_linear_1044_11023" x1="18.8494" y1="30.9362" x2="24.412" y2="17.1092" gradientUnits="userSpaceOnUse">
<stop stop-color="#FBE07A"/>
<stop offset="1" stop-color="#E81CA2"/>
</linearGradient>
</defs>
</svg>
